<svg width="24" height="24" viewBox="0 0 24 24" fill="none" xmlns="http://www.w3.org/2000/svg">
<path fill-rule="evenodd" clip-rule="evenodd" d="M11.9004 15.9431C9.71836 15.9431 7.95236 14.1761 7.95236 11.9951C7.95236 9.81409 9.71936 8.04709 11.9004 8.04709C14.0814 8.04709 15.8484 9.81409 15.8484 11.9951C15.8494 14.1761 14.0824 15.9431 11.9004 15.9431ZM11.9004 5.91309C8.53936 5.91309 5.81836 8.63709 5.81836 11.9951C5.81836 15.3561 8.54236 18.0771 11.9004 18.0771C15.2614 18.0771 17.9824 15.3531 17.9824 11.9951C17.9824 8.63409 15.2584 5.91309 11.9004 5.91309Z" fill="#BABABA"/>
<path fill-rule="evenodd" clip-rule="evenodd" d="M20.2351 20.3431C18.7411 21.8371 16.6671 21.7041 11.8711 21.7041C6.93211 21.7041 4.95211 21.7771 3.50711 20.3281C1.84311 18.6721 2.14411 16.0121 2.14411 11.9791C2.14411 6.52212 1.58411 2.59212 7.06111 2.31112C8.31911 2.26712 8.69011 2.25212 11.8571 2.25212L11.9021 2.28112C17.1651 2.28112 21.2951 1.73012 21.5431 7.20612C21.5991 8.45612 21.6121 8.83112 21.6121 11.9941C21.6111 16.8751 21.7041 18.8671 20.2351 20.3431ZM16.7831 0.221121C14.6021 0.119121 9.20011 0.124121 7.01711 0.221121C5.09911 0.311121 3.40711 0.774121 2.04311 2.13812C-0.23689 4.41812 0.05511 7.49012 0.05511 11.9951C0.05511 16.6051 -0.20189 19.6061 2.04311 21.8511C4.33211 24.1391 7.44811 23.8401 11.9001 23.8401C16.4671 23.8401 18.0431 23.8421 19.6581 23.2171C21.8541 22.3651 23.5111 20.4021 23.6731 16.8771C23.7761 14.6951 23.7701 9.29412 23.6731 7.11112C23.4781 2.95012 21.2441 0.427121 16.7831 0.221121Z" fill="#BABABA"/>
<path fill-rule="evenodd" clip-rule="evenodd" d="M18.2237 4.25098C19.0087 4.25098 19.6447 4.88698 19.6447 5.67198C19.6447 6.45698 19.0087 7.09398 18.2237 7.09398C17.4387 7.09398 16.8027 6.45698 16.8027 5.67198C16.8027 4.88698 17.4387 4.25098 18.2237 4.25098Z" fill="#BABABA"/>
</svg>
