<svg width="27" height="22" viewBox="0 0 27 22" fill="none" xmlns="http://www.w3.org/2000/svg">
<path fill-rule="evenodd" clip-rule="evenodd" d="M26.4818 3.08974C25.5328 3.50574 24.5218 3.78174 23.4688 3.91574C24.5528 3.26874 25.3798 2.25074 25.7688 1.02474C24.7578 1.62774 23.6418 2.05374 22.4528 2.29074C21.4928 1.26874 20.1248 0.635742 18.6328 0.635742C15.7368 0.635742 13.4058 2.98574 13.4058 5.86674C13.4058 6.28174 13.4408 6.68074 13.5268 7.05974C9.17874 6.84774 5.33172 4.76374 2.74671 1.58974C2.29571 2.37274 2.03071 3.26874 2.03071 4.23274C2.03071 6.04374 2.96371 7.64974 4.35472 8.57974C3.51371 8.56374 2.68971 8.31974 1.99171 7.93474V7.99274C1.99171 10.5337 3.80372 12.6447 6.18173 13.1317C5.75572 13.2477 5.29172 13.3037 4.81072 13.3037C4.47572 13.3037 4.13772 13.2847 3.81972 13.2147C4.49772 15.2857 6.42073 16.8077 8.70674 16.8577C6.92773 18.2497 4.66872 19.0877 2.22271 19.0877C1.79371 19.0877 1.3827 19.0687 0.970703 19.0167C3.28771 20.5107 6.03272 21.3637 8.99374 21.3637C18.6178 21.3637 23.8798 13.3917 23.8798 6.48074C23.8798 6.24974 23.8718 6.02674 23.8608 5.80474C24.8988 5.06874 25.7708 4.14874 26.4818 3.08974Z" fill="#BABABA"/>
</svg>
