<svg width="28" height="16" viewBox="0 0 28 16" fill="none" xmlns="http://www.w3.org/2000/svg">
<path fill-rule="evenodd" clip-rule="evenodd" d="M22.9435 9.138C22.5135 8.596 22.6365 8.354 22.9435 7.869C22.9495 7.864 26.4955 2.963 26.8605 1.302L26.8625 1.3C27.0445 0.695 26.8625 0.25 25.9845 0.25H23.0795C22.3405 0.25 21.9995 0.632 21.8165 1.059C21.8165 1.059 20.3375 4.6 18.2445 6.895C17.5695 7.558 17.2575 7.771 16.8885 7.771C16.7065 7.771 16.4245 7.558 16.4245 6.952V1.3C16.4245 0.574 16.2175 0.25 15.6055 0.25H11.0375C10.5735 0.25 10.2975 0.589 10.2975 0.904C10.2975 1.593 11.3435 1.751 11.4525 3.689V7.892C11.4525 8.814 11.2855 8.983 10.9145 8.983C9.92653 8.983 7.52953 5.428 6.10953 1.359C5.82253 0.57 5.54253 0.251 4.79753 0.251H1.89053C1.06153 0.251 0.894531 0.633 0.894531 1.06C0.894531 1.815 1.88253 5.57 5.48653 10.53C7.88953 13.915 11.2725 15.75 14.3505 15.75C16.2005 15.75 16.4265 15.343 16.4265 14.642C16.4265 11.407 16.2595 11.101 17.1865 11.101C17.6155 11.101 18.3555 11.314 20.0825 12.947C22.0565 14.883 22.3815 15.75 23.4855 15.75H26.3915C27.2195 15.75 27.6385 15.343 27.3975 14.539C26.8455 12.848 23.1115 9.371 22.9435 9.138Z" fill="#BABABA"/>
</svg>
