<svg width="25" height="25" viewBox="0 0 25 25" fill="none" xmlns="http://www.w3.org/2000/svg">
<rect width="25" height="25" rx="5" fill="white"/>
<mask id="mask0" mask-type="alpha" maskUnits="userSpaceOnUse" x="0" y="0" width="25" height="25">
<rect width="25" height="25" rx="5" fill="white"/>
</mask>
<g mask="url(#mask0)">
<rect width="25" height="25" fill="#D80027"/>
<path d="M9.60161 0V12.9076V25H0V0H9.60161Z" fill="#6DA544"/>
<path d="M9.60162 17.1875C12.1905 17.1875 14.2891 15.0888 14.2891 12.5C14.2891 9.91117 12.1905 7.8125 9.60162 7.8125C7.01279 7.8125 4.91412 9.91117 4.91412 12.5C4.91412 15.0888 7.01279 17.1875 9.60162 17.1875Z" fill="#FFDA44"/>
<path d="M6.96472 10.1562V13.0859C6.96472 14.5421 8.14529 15.7227 9.60144 15.7227C11.0576 15.7227 12.2382 14.5421 12.2382 13.0859V10.1562H6.96472Z" fill="#D80027"/>
<path d="M9.60144 13.9648C9.11682 13.9648 8.72253 13.5705 8.72253 13.0859V11.914H10.4803V13.0859C10.4803 13.5705 10.0861 13.9648 9.60144 13.9648Z" fill="#F0F0F0"/>
</g>
</svg>
